<svg aria-hidden="true" style="position: absolute; width: 0; height: 0; overflow: hidden;" version="1.1" xmlns="http://www.w3.org/2000/svg" xmlns:xlink="http://www.w3.org/1999/xlink">
    <defs>
        <symbol id="icon-Search" viewBox="0 0 16 16" fill="#e0e0e0">
            <path d="M10.9167 9.66667H10.2583L10.025 9.44167C10.8699 8.46169 11.3343 7.21058 11.3333 5.91667C11.3333 4.84535 11.0157 3.7981 10.4205 2.90733C9.82527 2.01656 8.9793 1.3223 7.98954 0.912322C6.99977 0.502347 5.91066 0.395079 4.85993 0.604082C3.8092 0.813085 2.84404 1.32897 2.08651 2.08651C1.32897 2.84404 0.813085 3.8092 0.604082 4.85993C0.395079 5.91066 0.502347 6.99977 0.912322 7.98954C1.3223 8.9793 2.01656 9.82527 2.90733 10.4205C3.7981 11.0157 4.84535 11.3333 5.91667 11.3333C7.25834 11.3333 8.49167 10.8417 9.44167 10.025L9.66667 10.2583V10.9167L13.8333 15.075L15.075 13.8333L10.9167 9.66667ZM5.91667 9.66667C3.84167 9.66667 2.16667 7.99167 2.16667 5.91667C2.16667 3.84167 3.84167 2.16667 5.91667 2.16667C7.99167 2.16667 9.66667 3.84167 9.66667 5.91667C9.66667 7.99167 7.99167 9.66667 5.91667 9.66667Z" />
        </symbol>
        <symbol id="icon-StarEmpty" viewBox="0 0 16 16">
            <path fill="currentColor" fill-rule="evenodd" d="M9.595 6.252L8 1L6.405 6.252H1l4.373 3.4L3.75 15L8 11.695L12.25 15l-1.623-5.348L15 6.252zm-7.247.47H6.72L8 2.507L6.72 6.722zm3.537 2.75l-1.307 4.305zm7.767-2.75H9.28zm-8.75.9h2.366L8 5.214l.732 2.41h2.367l-1.915 1.49l.731 2.409L8 10.032l-1.915 1.49l.731-2.41l-1.915-1.49z" clip-rule="evenodd"/>
        </symbol>
        <symbol id="icon-StarFull" viewBox="0 0 16 16">
            <path fill="currentColor" fill-rule="evenodd" d="M9.595 6.252L8 1L6.405 6.252H1l4.373 3.4L3.75 15L8 11.695L12.25 15l-1.623-5.348L15 6.252z" clip-rule="evenodd"/>
        </symbol>
    </defs>
</svg>
